<svg xmlns="http://www.w3.org/2000/svg" viewBox="0 0 1050 870"><defs><filter id="shadow" width="140%" height="140%" x="-20%" y="-20%"><feDropShadow dx="2" dy="2" flood-opacity=".2" stdDeviation="3"/></filter></defs><rect width="1050" height="870" fill="#F8F9FA"/><text x="525" y="40" fill="#2C3E50" font-family="Arial, sans-serif" font-size="24" font-weight="bold" text-anchor="middle">WIP File Life Cycle</text><text x="525" y="65" fill="#7F8C8D" font-family="Arial, sans-serif" font-size="14" text-anchor="middle">Standard flow and optional alpha pre-release path</text><g transform="translate(30, 90)"><rect width="990" height="35" x="0" y="0" fill="#FFF" stroke="#DEE2E6" stroke-width="1" rx="5"/><rect width="18" height="15" x="15" y="10" fill="#5CB85C" rx="3"/><text x="40" y="22" fill="#495057" font-family="Arial, sans-serif" font-size="11">Read-only (template)</text><rect width="18" height="15" x="188" y="10" fill="#F0AD4E" rx="3"/><text x="213" y="22" fill="#495057" font-family="Arial, sans-serif" font-size="11">Active work (wip/)</text><rect width="18" height="15" x="360" y="10" fill="#1565C0" rx="3"/><text x="385" y="22" fill="#495057" font-family="Arial, sans-serif" font-size="11">Alpha pre-release (wip/)</text><rect width="18" height="15" x="560" y="10" fill="#5BC0DE" rx="3"/><text x="585" y="22" fill="#495057" font-family="Arial, sans-serif" font-size="11">Guide snapshots</text><rect width="18" height="15" x="710" y="10" fill="#D9EDF7" rx="3"/><text x="735" y="22" fill="#495057" font-family="Arial, sans-serif" font-size="11">Archived</text><rect width="18" height="15" x="818" y="10" fill="#F5F5F5" stroke="#DEE2E6" stroke-width="1" rx="3"/><text x="843" y="22" fill="#495057" font-family="Arial, sans-serif" font-size="11">Documentation</text></g><g transform="translate(30, 150)"><rect width="140" height="40" x="0" y="0" fill="#2C3E50" filter="url(#shadow)" rx="6"/><text x="70" y="25" fill="#FFF" font-family="Arial, sans-serif" font-size="14" font-weight="bold" text-anchor="middle">project-root/</text></g><path stroke="#6C757D" stroke-width="2" d="M 170 170 L 200 170"/><path stroke="#6C757D" stroke-width="2" d="M 200 170 L 200 720"/><g transform="translate(220, 145)"><path stroke="#6C757D" stroke-width="2" d="M -20 25 L 0 25"/><rect width="280" height="90" x="0" y="0" fill="#5CB85C" filter="url(#shadow)" rx="8"/><text x="15" y="25" fill="#FFF" font-family="Arial, sans-serif" font-size="13" font-weight="bold">templates/</text><rect width="250" height="22" x="15" y="38" fill="rgba(255,255,255,0.2)" rx="4"/><text x="25" y="54" fill="#FFF" font-family="Arial, sans-serif" font-size="11">template-wip.tex</text><text x="15" y="80" fill="rgba(255,255,255,0.8)" font-family="Arial, sans-serif" font-size="10" font-style="italic">⚠ NEVER modify directly — always copy first</text></g><g transform="translate(220, 255)"><path stroke="#6C757D" stroke-width="2" d="M -20 100 L 0 100"/><rect width="280" height="235" x="0" y="0" fill="#F0AD4E" filter="url(#shadow)" rx="8"/><text x="15" y="25" fill="#FFF" font-family="Arial, sans-serif" font-size="13" font-weight="bold">wip/</text><rect width="250" height="20" x="15" y="36" fill="rgba(255,255,255,0.2)" rx="3"/><text x="25" y="50" fill="#FFF" font-family="Arial, sans-serif" font-size="10">chapter-C4-dms-review-2026-02-01.tex</text><rect width="250" height="20" x="15" y="59" fill="rgba(255,255,255,0.2)" rx="3"/><text x="25" y="73" fill="#FFF" font-family="Arial, sans-serif" font-size="10">section-C3-S2-fcr-dev-2026-01-15.tex</text><rect width="250" height="20" x="15" y="82" fill="rgba(255,255,255,0.2)" rx="3"/><text x="25" y="96" fill="#FFF" font-family="Arial, sans-serif" font-size="10">table-C5-ALLM-CMS-final-2026-01-22.tex</text><rect width="250" height="22" x="15" y="106" fill="#1565C0" rx="3"/><text x="25" y="121" fill="#FFF" font-family="Arial, sans-serif" font-size="10" font-weight="bold">guide-v0.4.2.0-alpha.1-20260301.tex α</text><text x="15" y="142" fill="rgba(255,255,255,0.85)" font-family="Arial, sans-serif" font-size="9" font-style="italic">↑ alpha snapshots live here, not in guide/</text><rect width="250" height="50" x="15" y="152" fill="#5BC0DE" rx="5"/><text x="25" y="170" fill="#FFF" font-family="Arial, sans-serif" font-size="11" font-weight="bold">guide/</text><text x="35" y="188" fill="#FFF" font-family="Arial, sans-serif" font-size="10">guide-v0.4.1.1-20260218.tex</text><text x="15" y="222" fill="rgba(255,255,255,0.8)" font-family="Arial, sans-serif" font-size="9" font-style="italic">⤷ official snapshots only</text></g><g transform="translate(220, 508)"><path stroke="#6C757D" stroke-width="2" d="M -20 65 L 0 65"/><rect width="280" height="170" x="0" y="0" fill="#D9EDF7" filter="url(#shadow)" rx="8"/><text x="15" y="25" fill="#31708F" font-family="Arial, sans-serif" font-size="13" font-weight="bold">archive/</text><rect width="250" height="55" x="15" y="38" fill="#5BC0DE" rx="5"/><text x="25" y="56" fill="#FFF" font-family="Arial, sans-serif" font-size="11" font-weight="bold">GUIDE/</text><text x="35" y="74" fill="#FFF" font-family="Arial, sans-serif" font-size="10">guide-v0.3.2.1-20260129.tex</text><text x="35" y="88" fill="rgba(255,255,255,0.8)" font-family="Arial, sans-serif" font-size="9">Previous official snapshots</text><rect width="250" height="60" x="15" y="100" fill="#DFF0D8" rx="5"/><text x="25" y="118" fill="#3C763D" font-family="Arial, sans-serif" font-size="11" font-weight="bold">WIP/</text><text x="35" y="136" fill="#3C763D" font-family="Arial, sans-serif" font-size="10">section-C4-S3-approved-2026-01-19.tex</text><text x="35" y="152" fill="#A94442" font-family="Arial, sans-serif" font-size="10">table-C3-AA-TMS-deprecated-2026-01-22.tex</text></g><g transform="translate(220, 695)"><path stroke="#6C757D" stroke-width="2" d="M -20 25 L 0 25"/><rect width="280" height="60" x="0" y="0" fill="#F5F5F5" stroke="#DEE2E6" stroke-width="1" rx="8"/><text x="15" y="22" fill="#495057" font-family="Arial, sans-serif" font-size="13" font-weight="bold">docs/</text><text x="25" y="42" fill="#6C757D" font-family="Arial, sans-serif" font-size="10">project-tracking.md, version-system.md,</text><text x="25" y="54" fill="#6C757D" font-family="Arial, sans-serif" font-size="10">wip-naming.md, briefing.md</text></g><g transform="translate(548, 145)"><rect width="482" height="548" x="0" y="0" fill="#FFF" stroke="#DEE2E6" stroke-width="2" filter="url(#shadow)" rx="10"/><text x="241" y="30" fill="#2C3E50" font-family="Arial, sans-serif" font-size="14" font-weight="bold" text-anchor="middle">Status Flow</text><rect width="280" height="48" x="20" y="50" fill="#F1C40F" rx="24"/><text x="160" y="73" fill="#FFF" font-family="Arial, sans-serif" font-size="14" font-weight="bold" text-anchor="middle">dev</text><text x="160" y="89" fill="#FFF" font-family="Arial, sans-serif" font-size="10" text-anchor="middle">wip/ — Never reviewed</text><path stroke="#6C757D" stroke-width="2" d="M 160 102 L 160 122"/><polygon fill="#6C757D" points="160 127 155 119 165 119"/><rect width="280" height="48" x="20" y="130" fill="#E67E22" rx="24"/><text x="160" y="153" fill="#FFF" font-family="Arial, sans-serif" font-size="14" font-weight="bold" text-anchor="middle">review</text><text x="160" y="169" fill="#FFF" font-family="Arial, sans-serif" font-size="10" text-anchor="middle">wip/ — Under human iteration</text><path stroke="#6C757D" stroke-width="2" d="M 160 182 L 160 202"/><polygon fill="#6C757D" points="160 207 155 199 165 199"/><rect width="280" height="48" x="20" y="210" fill="#3498DB" rx="24"/><text x="160" y="233" fill="#FFF" font-family="Arial, sans-serif" font-size="14" font-weight="bold" text-anchor="middle">final</text><text x="160" y="249" fill="#FFF" font-family="Arial, sans-serif" font-size="10" text-anchor="middle">wip/ — Ready to integrate</text><path stroke="#6C757D" stroke-width="2" d="M 110 262 L 110 308"/><polygon fill="#6C757D" points="110 313 105 305 115 305"/><text x="76" y="288" fill="#6C757D" font-family="Arial, sans-serif" font-size="9">std.</text><path stroke="#1565C0" stroke-dasharray="5 3" stroke-width="2" d="M 302 234 L 335 234"/><polygon fill="#1565C0" points="340 234 332 230 332 238"/><rect width="120" height="58" x="343" y="212" fill="#1565C0" filter="url(#shadow)" rx="10"/><text x="403" y="235" fill="#FFF" font-family="Arial, sans-serif" font-size="14" font-weight="bold" text-anchor="middle">alpha</text><text x="403" y="251" fill="#90CAF9" font-family="Arial, sans-serif" font-size="9" text-anchor="middle">optional</text><text x="403" y="263" fill="#90CAF9" font-family="Arial, sans-serif" font-size="9" text-anchor="middle">pre-release only</text><path fill="none" stroke="#1565C0" stroke-dasharray="5 3" stroke-width="1.5" d="M 403 272 L 403 335 L 303 335"/><polygon fill="#1565C0" points="300 335 308 331 308 339"/><text x="368" y="320" fill="#1565C0" font-family="Arial, sans-serif" font-size="9">batch</text><rect width="280" height="48" x="20" y="316" fill="#27AE60" rx="24"/><text x="160" y="339" fill="#FFF" font-family="Arial, sans-serif" font-size="14" font-weight="bold" text-anchor="middle">approved</text><text x="160" y="355" fill="#FFF" font-family="Arial, sans-serif" font-size="10" text-anchor="middle">archive/WIP/ — Integrated (terminal)</text><rect width="280" height="48" x="20" y="400" fill="#E74C3C" rx="24"/><text x="160" y="423" fill="#FFF" font-family="Arial, sans-serif" font-size="14" font-weight="bold" text-anchor="middle">deprecated</text><text x="160" y="439" fill="#FFF" font-family="Arial, sans-serif" font-size="10" text-anchor="middle">archive/WIP/ — Abandoned (terminal)</text><path fill="none" stroke="#E74C3C" stroke-dasharray="4 2" stroke-width="1.5" d="M 20 74 L 6 74 L 6 424 L 18 424"/><path fill="none" stroke="#E74C3C" stroke-dasharray="4 2" stroke-width="1.5" d="M 20 154 L 10 154 L 10 424 L 18 424"/><path fill="none" stroke="#E74C3C" stroke-dasharray="4 2" stroke-width="1.5" d="M 20 234 L 14 234 L 14 424 L 18 424"/><path fill="none" stroke="#E74C3C" stroke-dasharray="4 2" stroke-width="1.5" d="M 463 241 L 472 241 L 472 424 L 302 424"/><rect width="462" height="62" x="10" y="467" fill="#E3F2FD" stroke="#1565C0" stroke-dasharray="5 3" stroke-width="1.5" rx="6"/><text x="241" y="487" fill="#1565C0" font-family="Arial, sans-serif" font-size="10" font-weight="bold" text-anchor="middle">Alpha path — activated only with pre-release infrastructure</text><text x="241" y="504" fill="#1565C0" font-family="Arial, sans-serif" font-size="10" text-anchor="middle">WIP files remain in wip/ until official release;</text><text x="241" y="521" fill="#1565C0" font-family="Arial, sans-serif" font-size="10" text-anchor="middle">then batch-archived as approved alongside the official snapshot</text></g><g transform="translate(548, 708)"><rect width="482" height="55" x="0" y="0" fill="#2C3E50" filter="url(#shadow)" rx="8"/><text x="241" y="22" fill="#FFF" font-family="Arial, sans-serif" font-size="12" font-weight="bold" text-anchor="middle">guide.tex (repository root)</text><text x="241" y="42" fill="#BDC3C7" font-family="Arial, sans-serif" font-size="10" text-anchor="middle">Canonical file — byte-identical to current official snapshot</text></g><text x="525" y="850" fill="#7F8C8D" font-family="Arial, sans-serif" font-size="11" text-anchor="middle">WIP-FILE-NAMING | Folder structure, status lifecycle, and alpha pre-release path</text></svg>